<!-- DIGITAL TERRARIUM — generated by generate-terrarium.js -->
<!-- DO NOT EDIT BY HAND — this file is auto-overwritten by the GitHub Action -->
<svg
  xmlns="http://www.w3.org/2000/svg"
  xmlns:xlink="http://www.w3.org/1999/xlink"
  viewBox="0 0 520 340"
  width="520"
  height="340"
  role="img"
  aria-label="Digital Terrarium — GitHub contribution ecosystem"
>
  <title>Digital Terrarium</title>

  <defs>
    <filter id="glow" x="-40%" y="-40%" width="180%" height="180%">
      <feGaussianBlur stdDeviation="3.5" result="blur1"/>
      <feGaussianBlur stdDeviation="7"   result="blur2"/>
      <feMerge>
        <feMergeNode in="blur2"/>
        <feMergeNode in="blur1"/>
        <feMergeNode in="SourceGraphic"/>
      </feMerge>
    </filter>

    <filter id="softglow" x="-30%" y="-30%" width="160%" height="160%">
      <feGaussianBlur stdDeviation="2" result="blur"/>
      <feMerge>
        <feMergeNode in="blur"/>
        <feMergeNode in="SourceGraphic"/>
      </feMerge>
    </filter>

    <linearGradient id="jarGlass" x1="0%" y1="0%" x2="100%" y2="0%">
      <stop offset="0%"   stop-color="#a8d8ea" stop-opacity="0.18"/>
      <stop offset="18%"  stop-color="#e8f7ff" stop-opacity="0.55"/>
      <stop offset="50%"  stop-color="#ffffff" stop-opacity="0.04"/>
      <stop offset="82%"  stop-color="#e8f7ff" stop-opacity="0.45"/>
      <stop offset="100%" stop-color="#a8d8ea" stop-opacity="0.15"/>
    </linearGradient>

    <linearGradient id="lidGrad" x1="0%" y1="0%" x2="0%" y2="100%">
      <stop offset="0%"   stop-color="#c8d8e8"/>
      <stop offset="50%"  stop-color="#8899aa"/>
      <stop offset="100%" stop-color="#667788"/>
    </linearGradient>

    <linearGradient id="soilGrad" x1="0%" y1="0%" x2="0%" y2="100%">
      <stop offset="0%"   stop-color="#5c3d1e"/>
      <stop offset="60%"  stop-color="#3b2010"/>
      <stop offset="100%" stop-color="#1e0f05"/>
    </linearGradient>

    <linearGradient id="pebbleGrad" x1="0%" y1="0%" x2="0%" y2="100%">
      <stop offset="0%"  stop-color="#8ca0a8"/>
      <stop offset="100%" stop-color="#5a6a72"/>
    </linearGradient>

    <radialGradient id="jarBg" cx="50%" cy="40%" r="55%">
      <stop offset="0%"   stop-color="#0d1b2a"/>
      <stop offset="60%"  stop-color="#091220"/>
      <stop offset="100%" stop-color="#050c15"/>
    </radialGradient>

    <clipPath id="jarClip">
      <path d="M 145,52 Q 145,35 165,32 L 355,32 Q 375,35 375,52 L 388,280 Q 388,300 370,305 L 150,305 Q 132,300 132,280 Z"/>
    </clipPath>
  </defs>

  <rect width="520" height="340" fill="#080e18" rx="14"/>

  <g id="stars" opacity="0.55">
    <circle cx="32"  cy="22"  r="1"   fill="#fff"/>
    <circle cx="80"  cy="55"  r="0.8" fill="#cce"/>
    <circle cx="18"  cy="90"  r="0.7" fill="#fff"/>
    <circle cx="110" cy="12"  r="1.1" fill="#eef"/>
    <circle cx="460" cy="18"  r="1"   fill="#fff"/>
    <circle cx="495" cy="60"  r="0.8" fill="#cce"/>
    <circle cx="475" cy="100" r="0.7" fill="#fff"/>
    <circle cx="412" cy="30"  r="1"   fill="#eef"/>
    <circle cx="50"  cy="300" r="0.9" fill="#cce"/>
    <circle cx="490" cy="290" r="0.8" fill="#fff"/>
  </g>

  <rect x="132" y="32" width="256" height="273" fill="url(#jarBg)" clip-path="url(#jarClip)"/>

  <g clip-path="url(#jarClip)">
    <ellipse cx="260" cy="295" rx="122" ry="11" fill="url(#pebbleGrad)" opacity="0.9"/>
    <circle cx="175" cy="292" r="4.5" fill="#6a7c85" opacity="0.8"/>
    <circle cx="200" cy="296" r="3.5" fill="#7a8c95" opacity="0.7"/>
    <circle cx="225" cy="293" r="5"   fill="#5e6f78" opacity="0.85"/>
    <circle cx="255" cy="297" r="4"   fill="#7d8f98" opacity="0.75"/>
    <circle cx="280" cy="292" r="3.8" fill="#6a7c85" opacity="0.8"/>
    <circle cx="305" cy="295" r="5.2" fill="#5c6d76" opacity="0.85"/>
    <circle cx="330" cy="293" r="4"   fill="#78898f" opacity="0.75"/>
    <circle cx="350" cy="296" r="3.5" fill="#6a7c85" opacity="0.8"/>

    <path d="M 134,270 Q 260,255 386,270 L 388,305 L 132,305 Z" fill="url(#soilGrad)" opacity="0.98"/>
    <path d="M 150,278 Q 200,274 250,277" stroke="#3b2010" stroke-width="1" fill="none" opacity="0.5"/>
    <path d="M 260,275 Q 320,272 370,276" stroke="#3b2010" stroke-width="1" fill="none" opacity="0.4"/>

    <g id="slot-1" transform="translate(172,265)">
      <!-- PLANT:EMPTY -->
      <ellipse cx="0" cy="0" rx="12" ry="4" fill="#4a2e12" opacity="0.6"/>
    </g>

    <g id="slot-2" transform="translate(216,263)">
      <!-- PLANT:EMPTY -->
      <ellipse cx="0" cy="0" rx="12" ry="4" fill="#4a2e12" opacity="0.6"/>
    </g>

    <g id="slot-3" transform="translate(260,260)">
      <!-- PLANT:EMPTY -->
      <ellipse cx="0" cy="0" rx="12" ry="4" fill="#4a2e12" opacity="0.6"/>
    </g>

    <g id="slot-4" transform="translate(304,263)">
      <!-- PLANT:ORCHID -->
      <ellipse cx="0" cy="0" rx="14" ry="5" fill="#3a1020" opacity="0.8"/>
      <g filter="url(#glow)">
        <path d="M 0,0 Q 3,-55 0,-82" stroke="#a855f7" stroke-width="2.2" fill="none" stroke-linecap="round"/>
        <path d="M 1,-45 Q -20,-58 -22,-74" stroke="#9333ea" stroke-width="1.8" fill="none" stroke-linecap="round"/>
        <path d="M 1,-48 Q  18,-62  20,-78" stroke="#a855f7" stroke-width="1.8" fill="none" stroke-linecap="round"/>
        <g transform="translate(0,-92)">
          <ellipse cx="0" cy="-10" rx="5.5" ry="12" fill="#e879f9" opacity="0.85" transform="rotate(-18)"/>
          <ellipse cx="0" cy="-10" rx="5.5" ry="12" fill="#f0abfc" opacity="0.85" transform="rotate(18)"/>
          <ellipse cx="0" cy="-10" rx="5.5" ry="11" fill="#e879f9" opacity="0.85" transform="rotate(90)"/>
          <ellipse cx="0" cy="-10" rx="5.5" ry="11" fill="#f0abfc" opacity="0.85" transform="rotate(-90)"/>
          <ellipse cx="0" cy="-10" rx="5"   ry="12" fill="#d946ef" opacity="0.9"  transform="rotate(0)"/>
          <ellipse cx="0" cy="0"   rx="4"   ry="5"  fill="#fbbf24" opacity="0.9"/>
          <ellipse cx="0" cy="1"   rx="2"   ry="3"  fill="#f59e0b" opacity="0.95"/>
        </g>
        <g transform="translate(-22,-78) rotate(-15)">
          <ellipse cx="0" cy="-8" rx="4.5" ry="10" fill="#c026d3" opacity="0.8"  transform="rotate(-20)"/>
          <ellipse cx="0" cy="-8" rx="4.5" ry="10" fill="#d946ef" opacity="0.8"  transform="rotate(20)"/>
          <ellipse cx="0" cy="-8" rx="4.5" ry="9.5" fill="#c026d3" opacity="0.8" transform="rotate(90)"/>
          <ellipse cx="0" cy="-8" rx="4.5" ry="9.5" fill="#d946ef" opacity="0.8" transform="rotate(-90)"/>
          <ellipse cx="0" cy="-8" rx="4"   ry="10"  fill="#a21caf" opacity="0.85" transform="rotate(0)"/>
          <ellipse cx="0" cy="0"  rx="3"   ry="4"   fill="#fcd34d" opacity="0.9"/>
        </g>
        <g transform="translate(20,-82) rotate(12)">
          <ellipse cx="0" cy="-8" rx="4.5" ry="10"  fill="#e879f9" opacity="0.75" transform="rotate(-20)"/>
          <ellipse cx="0" cy="-8" rx="4.5" ry="10"  fill="#c026d3" opacity="0.75" transform="rotate(20)"/>
          <ellipse cx="0" cy="-8" rx="4.5" ry="9.5" fill="#e879f9" opacity="0.75" transform="rotate(90)"/>
          <ellipse cx="0" cy="-8" rx="4.5" ry="9.5" fill="#c026d3" opacity="0.75" transform="rotate(-90)"/>
          <ellipse cx="0" cy="-8" rx="4"   ry="10"  fill="#d946ef" opacity="0.8"  transform="rotate(0)"/>
          <ellipse cx="0" cy="0"  rx="3"   ry="4"   fill="#fde68a" opacity="0.9"/>
        </g>
        <circle cx="-30" cy="-100" r="2"   fill="#f0abfc" opacity="0.6"/>
        <circle cx=" 28" cy="-108" r="1.5" fill="#e879f9" opacity="0.5"/>
        <circle cx="-12" cy="-115" r="1.8" fill="#d946ef" opacity="0.7"/>
        <circle cx=" 14" cy="-118" r="1.2" fill="#a855f7" opacity="0.5"/>
      </g>
    </g>

    <g id="slot-5" transform="translate(348,265)">
      <!-- PLANT:ORCHID -->
      <ellipse cx="0" cy="0" rx="14" ry="5" fill="#3a1020" opacity="0.8"/>
      <g filter="url(#glow)">
        <path d="M 0,0 Q 3,-55 0,-82" stroke="#a855f7" stroke-width="2.2" fill="none" stroke-linecap="round"/>
        <path d="M 1,-45 Q -20,-58 -22,-74" stroke="#9333ea" stroke-width="1.8" fill="none" stroke-linecap="round"/>
        <path d="M 1,-48 Q  18,-62  20,-78" stroke="#a855f7" stroke-width="1.8" fill="none" stroke-linecap="round"/>
        <g transform="translate(0,-92)">
          <ellipse cx="0" cy="-10" rx="5.5" ry="12" fill="#e879f9" opacity="0.85" transform="rotate(-18)"/>
          <ellipse cx="0" cy="-10" rx="5.5" ry="12" fill="#f0abfc" opacity="0.85" transform="rotate(18)"/>
          <ellipse cx="0" cy="-10" rx="5.5" ry="11" fill="#e879f9" opacity="0.85" transform="rotate(90)"/>
          <ellipse cx="0" cy="-10" rx="5.5" ry="11" fill="#f0abfc" opacity="0.85" transform="rotate(-90)"/>
          <ellipse cx="0" cy="-10" rx="5"   ry="12" fill="#d946ef" opacity="0.9"  transform="rotate(0)"/>
          <ellipse cx="0" cy="0"   rx="4"   ry="5"  fill="#fbbf24" opacity="0.9"/>
          <ellipse cx="0" cy="1"   rx="2"   ry="3"  fill="#f59e0b" opacity="0.95"/>
        </g>
        <g transform="translate(-22,-78) rotate(-15)">
          <ellipse cx="0" cy="-8" rx="4.5" ry="10" fill="#c026d3" opacity="0.8"  transform="rotate(-20)"/>
          <ellipse cx="0" cy="-8" rx="4.5" ry="10" fill="#d946ef" opacity="0.8"  transform="rotate(20)"/>
          <ellipse cx="0" cy="-8" rx="4.5" ry="9.5" fill="#c026d3" opacity="0.8" transform="rotate(90)"/>
          <ellipse cx="0" cy="-8" rx="4.5" ry="9.5" fill="#d946ef" opacity="0.8" transform="rotate(-90)"/>
          <ellipse cx="0" cy="-8" rx="4"   ry="10"  fill="#a21caf" opacity="0.85" transform="rotate(0)"/>
          <ellipse cx="0" cy="0"  rx="3"   ry="4"   fill="#fcd34d" opacity="0.9"/>
        </g>
        <g transform="translate(20,-82) rotate(12)">
          <ellipse cx="0" cy="-8" rx="4.5" ry="10"  fill="#e879f9" opacity="0.75" transform="rotate(-20)"/>
          <ellipse cx="0" cy="-8" rx="4.5" ry="10"  fill="#c026d3" opacity="0.75" transform="rotate(20)"/>
          <ellipse cx="0" cy="-8" rx="4.5" ry="9.5" fill="#e879f9" opacity="0.75" transform="rotate(90)"/>
          <ellipse cx="0" cy="-8" rx="4.5" ry="9.5" fill="#c026d3" opacity="0.75" transform="rotate(-90)"/>
          <ellipse cx="0" cy="-8" rx="4"   ry="10"  fill="#d946ef" opacity="0.8"  transform="rotate(0)"/>
          <ellipse cx="0" cy="0"  rx="3"   ry="4"   fill="#fde68a" opacity="0.9"/>
        </g>
        <circle cx="-30" cy="-100" r="2"   fill="#f0abfc" opacity="0.6"/>
        <circle cx=" 28" cy="-108" r="1.5" fill="#e879f9" opacity="0.5"/>
        <circle cx="-12" cy="-115" r="1.8" fill="#d946ef" opacity="0.7"/>
        <circle cx=" 14" cy="-118" r="1.2" fill="#a855f7" opacity="0.5"/>
      </g>
    </g>

    <g id="weather" display="inline">
      <g transform="translate(260,78)" opacity="0.93">
        <ellipse cx="-30" cy="8"  rx="28" ry="18" fill="#2a2e3a"/>
        <ellipse cx="0"   cy="2"  rx="34" ry="22" fill="#32374a"/>
        <ellipse cx="28"  cy="9"  rx="26" ry="17" fill="#2a2e3a"/>
        <ellipse cx="0"   cy="16" rx="44" ry="12" fill="#3a3f52"/>
        <path d="M 4,-4 L -5,10 L 1,10 L -6,24 L 8,8 L 2,8 Z" fill="#ffe066" opacity="0.9" filter="url(#softglow)"/>
      </g>
      <g id="rain-particles" opacity="0.75">
        <line x1="200" y1="110" x2="196" y2="128" stroke="#6ab4ff" stroke-width="1.4" stroke-linecap="round">
          <animate attributeName="y1" values="110;230;110" dur="1.1s" repeatCount="indefinite"/>
          <animate attributeName="y2" values="128;248;128" dur="1.1s" repeatCount="indefinite"/>
          <animate attributeName="opacity" values="0.8;0.2;0.8" dur="1.1s" repeatCount="indefinite"/>
        </line>
        <line x1="225" y1="120" x2="221" y2="138" stroke="#6ab4ff" stroke-width="1.4" stroke-linecap="round">
          <animate attributeName="y1" values="120;240;120" dur="0.95s" repeatCount="indefinite" begin="0.2s"/>
          <animate attributeName="y2" values="138;258;138" dur="0.95s" repeatCount="indefinite" begin="0.2s"/>
          <animate attributeName="opacity" values="0.7;0.15;0.7" dur="0.95s" repeatCount="indefinite" begin="0.2s"/>
        </line>
        <line x1="248" y1="115" x2="244" y2="133" stroke="#6ab4ff" stroke-width="1.4" stroke-linecap="round">
          <animate attributeName="y1" values="115;235;115" dur="1.25s" repeatCount="indefinite" begin="0.05s"/>
          <animate attributeName="y2" values="133;253;133" dur="1.25s" repeatCount="indefinite" begin="0.05s"/>
          <animate attributeName="opacity" values="0.75;0.1;0.75" dur="1.25s" repeatCount="indefinite" begin="0.05s"/>
        </line>
        <line x1="270" y1="108" x2="266" y2="126" stroke="#8ecfff" stroke-width="1.2" stroke-linecap="round">
          <animate attributeName="y1" values="108;228;108" dur="1.05s" repeatCount="indefinite" begin="0.35s"/>
          <animate attributeName="y2" values="126;246;126" dur="1.05s" repeatCount="indefinite" begin="0.35s"/>
          <animate attributeName="opacity" values="0.85;0.2;0.85" dur="1.05s" repeatCount="indefinite" begin="0.35s"/>
        </line>
        <line x1="292" y1="118" x2="288" y2="136" stroke="#6ab4ff" stroke-width="1.4" stroke-linecap="round">
          <animate attributeName="y1" values="118;238;118" dur="1.15s" repeatCount="indefinite" begin="0.15s"/>
          <animate attributeName="y2" values="136;256;136" dur="1.15s" repeatCount="indefinite" begin="0.15s"/>
          <animate attributeName="opacity" values="0.7;0.15;0.7" dur="1.15s" repeatCount="indefinite" begin="0.15s"/>
        </line>
        <line x1="316" y1="112" x2="312" y2="130" stroke="#8ecfff" stroke-width="1.2" stroke-linecap="round">
          <animate attributeName="y1" values="112;232;112" dur="1.3s" repeatCount="indefinite" begin="0.45s"/>
          <animate attributeName="y2" values="130;250;130" dur="1.3s" repeatCount="indefinite" begin="0.45s"/>
          <animate attributeName="opacity" values="0.8;0.2;0.8" dur="1.3s" repeatCount="indefinite" begin="0.45s"/>
        </line>
        <line x1="338" y1="122" x2="334" y2="140" stroke="#6ab4ff" stroke-width="1.4" stroke-linecap="round">
          <animate attributeName="y1" values="122;242;122" dur="0.9s" repeatCount="indefinite" begin="0.6s"/>
          <animate attributeName="y2" values="140;260;140" dur="0.9s" repeatCount="indefinite" begin="0.6s"/>
          <animate attributeName="opacity" values="0.75;0.1;0.75" dur="0.9s" repeatCount="indefinite" begin="0.6s"/>
        </line>
      </g>
    </g>

    <ellipse cx="260" cy="48" rx="60" ry="8" fill="#b0e0ff" opacity="0.06"/>
  </g>

  <path d="M 145,52 Q 145,35 165,32 L 355,32 Q 375,35 375,52 L 388,280 Q 388,300 370,305 L 150,305 Q 132,300 132,280 Z"
    fill="url(#jarGlass)" stroke="#a0c8d8" stroke-width="2.5" stroke-linejoin="round" opacity="0.9"/>

  <rect x="155" y="24" width="210" height="14" rx="5" fill="url(#lidGrad)"/>
  <rect x="168" y="19" width="184" height="10" rx="4" fill="#b0beca"/>
  <rect x="175" y="15" width="170" height="8"  rx="3" fill="#c8d5de"/>
  <circle cx="190" cy="23" r="3" fill="#8899aa"/>
  <circle cx="260" cy="23" r="3" fill="#8899aa"/>
  <circle cx="330" cy="23" r="3" fill="#8899aa"/>

  <line x1="148" y1="60"  x2="143" y2="260" stroke="white" stroke-width="3"   opacity="0.12" stroke-linecap="round"/>
  <line x1="160" y1="45"  x2="155" y2="200" stroke="white" stroke-width="1.5" opacity="0.18" stroke-linecap="round"/>
  <line x1="370" y1="58"  x2="377" y2="255" stroke="white" stroke-width="2.5" opacity="0.10" stroke-linecap="round"/>

  <text x="260" y="14"
    font-family="'Segoe UI', system-ui, sans-serif"
    font-size="11" font-weight="600" letter-spacing="3"
    text-anchor="middle" fill="#6a8fa8" opacity="0.75">
    ✦  DIGITAL TERRARIUM  ✦
  </text>

  <text id="last-updated" x="260" y="324"
    font-family="'Segoe UI Mono', 'SF Mono', monospace"
    font-size="9.5" text-anchor="middle" fill="#3a5a6a" opacity="0.7">last updated: Sun, 19 Jul 2026 02:01 UTC</text>

  <g transform="translate(22,115)" font-family="'Segoe UI', system-ui, sans-serif" font-size="9" fill="#5a8a9a">
    <text x="0" y="0"  opacity="0.9" font-weight="600" letter-spacing="1">LEGEND</text>
    <circle cx="6" cy="16" r="4" fill="#4ade80" filter="url(#softglow)"/>
    <text x="16" y="20" opacity="0.8">1–3  sprout</text>
    <circle cx="6" cy="36" r="4" fill="#22c55e"/>
    <text x="16" y="40" opacity="0.8">4–6  fern</text>
    <circle cx="6" cy="56" r="4" fill="#d946ef" filter="url(#glow)"/>
    <text x="16" y="60" opacity="0.8">7+   orchid</text>
    <text x="0"  y="80" opacity="0.6">☁  drought</text>
  </g>

  <g id="stats-table" transform="translate(358,115)"
    font-family="'Segoe UI Mono', 'SF Mono', monospace" font-size="9" fill="#5a8a9a">
    <text x="0" y="0"  font-weight="600" letter-spacing="1" opacity="0.9">COMMITS</text>
    <text id="stat-w1" x="0" y="16" opacity="0.8">W1    0  </text>
    <text id="stat-w2" x="0" y="30" opacity="0.8">W2    3  █</text>
    <text id="stat-w3" x="0" y="44" opacity="0.8">W3   40  ██████████</text>
    <text id="stat-w4" x="0" y="58" opacity="0.8">W4   68  ██████████</text>
  </g>

</svg>
